# xmcd
#
# Track frame offsets: 
#        150
#        12801
#        23159
#        35089
#        48387
#        63097
#        81632
#        96677
#        117137
#        128566
#        148613
#        161731
#        177360
#        194093
#        215242
#        231162
#        247912
#        263289
#        281578
#        297198
#        314833
#
# Disc length: 4462 seconds
#
# Revision: 0
# Processed by: cddbd v1.5.2PL0 Copyright (c) Steve Scherf et al.
# Submitted via: ExactAudioCopy v1.1
#
DISCID=3e116c15
DTITLE=Various Artist - Radio 2 - Italiaanse Klassiekers - CD 2
DYEAR=2018
DGENRE=Chanson
TTITLE0=Rocco Granata - Marina
TTITLE1=Adamo - Dolce Paola
TTITLE2=Helmut Lotti - Tiritomba
TTITLE3=Luciano Pavarotti - Nessun Dorma!
TTITLE4=Gigliola Cinquetti - Non Ho L'Età (Per Amarti)
TTITLE5=Bino - Mama Leone
TTITLE6=Andrea - I'm A Lover
TTITLE7=Iván - Fotonovela
TTITLE8=Bob Azzam - Tintarella Di Luna
TTITLE9=Angelo Branduardi - La Pulce D'Acqua
TTITLE10=Ricchi E Poveri - Mamma Maria
TTITLE11=Renato Carosone - Tu Vuò Fà L'Americano
TTITLE12=Rino Gaetano - Gianna
TTITLE13=Raf - Sei La Piu' Bella Del Mondo
TTITLE14=Francesca Michielin - Nessun Grado Di Separazione
TTITLE15=Pino Daniele - Napule È
TTITLE16=Vinicio Capossela - Una Giornata Senza Pretese
TTITLE17=Vasco Rossi - Albachiara
TTITLE18=Neri Per Caso - Le Ragazze
TTITLE19=Umberto Tozzi and Raf - Gente Di Mare
TTITLE20=Zucchero and Paul Young - Senza Una Donna (Without A Woman)
EXTD=
EXTT0=
EXTT1=
EXTT2=
EXTT3=
EXTT4=
EXTT5=
EXTT6=
EXTT7=
EXTT8=
EXTT9=
EXTT10=
EXTT11=
EXTT12=
EXTT13=
EXTT14=
EXTT15=
EXTT16=
EXTT17=
EXTT18=
EXTT19=
EXTT20=
PLAYORDER=
